<svg xmlns="http://www.w3.org/2000/svg" viewBox="0 0 512 512" id="bio-gas"><path fill="#f8664f" d="M393.662 163.698v249.384c0 31.455-25.499 56.954-56.954 56.954H154.436c-31.455 0-56.954-25.499-56.954-56.954V163.698c0-31.455 25.499-56.954 56.954-56.954h182.272c31.455 0 56.954 25.499 56.954 56.954z"></path><path d="M393.674 163.686v249.401c0 24.961-16.076 46.196-38.458 53.856 11.1-10.344 18.03-25.117 18.03-41.532V176.01c0-31.449-25.482-56.957-56.931-56.957H134.033a56.611 56.611 0 0 0-18.525 3.101c10.188-9.562 23.893-15.399 38.927-15.399h182.283c31.448 0 56.956 25.482 56.956 56.931z" opacity=".1"></path><path fill="#fff" d="M118.322 224.187a3.257 3.257 0 0 1-3.257-3.257v-20.01a3.257 3.257 0 1 1 6.514 0v20.01a3.257 3.257 0 0 1-3.257 3.257zm0-36.427a3.257 3.257 0 0 1-3.257-3.257v-8.623a3.257 3.257 0 1 1 6.514 0v8.623a3.257 3.257 0 0 1-3.257 3.257z"></path><path fill="#eef0ee" d="M156.504 422.783c-9.538 0-17.271-7.732-17.271-17.271V171.267c0-9.538 7.732-17.271 17.271-17.271H334.64c9.538 0 17.271 7.732 17.271 17.271v234.245c0 9.538-7.732 17.271-17.271 17.271H156.504z"></path><path fill="#e84d3d" d="M155.747 47.672h33.544v59.078h-33.544zM301.853 47.672h33.544v59.078h-33.544z"></path><path fill="#f8664f" d="M348.932 35.89c0 6.507-5.275 11.782-11.782 11.782H153.993c-6.507 0-11.782-5.275-11.782-11.782s5.275-11.782 11.782-11.782H337.15c6.507 0 11.782 5.275 11.782 11.782z"></path><path fill="#eef0ee" d="M234.473 81.607h22.197v25.137h-22.197zM265.976 68.303v8.623a4.681 4.681 0 0 1-4.681 4.681h-31.446a4.681 4.681 0 0 1-4.681-4.681v-8.623a4.681 4.681 0 0 1 4.681-4.681h31.446a4.68 4.68 0 0 1 4.681 4.681z"></path><path fill="#a1d51c" d="M319.826 264.65s14.054 92.745-80.338 67.88c0 0-17.912-42.843 28.624-50.94 5.311-.924 10.713-1.115 16.097-.823 8.608.467 28.145-.338 35.617-16.117zm-99.677 45.151s48.7-47.677-35.548-97.951c0-.001-37.199 100.18 35.548 97.951z"></path><path fill="#e84d3d" d="M337.132 470.048v23.014c0 8.656-7.017 15.674-15.674 15.674H169.686c-8.656 0-15.674-7.017-15.674-15.674v-23.014h183.12z"></path><path d="M414.517 318.011a3.257 3.257 0 0 0-3.257 3.257v9.119a3.257 3.257 0 1 0 6.514 0v-9.119a3.257 3.257 0 0 0-3.257-3.257zm0 26.447a3.257 3.257 0 0 0-3.257 3.257v49.79a3.257 3.257 0 1 0 6.514 0v-49.79a3.257 3.257 0 0 0-3.257-3.257zm-75.863-240.921V50.853c7.589-.757 13.534-7.179 13.534-14.964 0-8.292-6.745-15.038-15.038-15.038H153.993c-8.292 0-15.038 6.745-15.038 15.038 0 7.786 5.946 14.208 13.537 14.964v52.684c-32.302 1.032-58.266 27.612-58.266 60.16v249.385c0 31.964 25.038 58.177 56.53 60.086v19.894c0 10.437 8.493 18.931 18.931 18.931h151.772c10.437 0 18.931-8.493 18.931-18.931v-19.894c31.491-1.91 56.53-28.123 56.53-60.086V163.697c0-32.547-25.965-59.127-58.266-60.16zm-78.725-.049V84.865h1.366c4.376 0 7.939-3.562 7.939-7.939v-8.623c0-4.376-3.562-7.939-7.939-7.939h-31.447c-4.376 0-7.939 3.562-7.939 7.939v8.623c0 4.376 3.562 7.939 7.939 7.939h1.369v18.623h-38.668V50.929h106.048v52.558h-38.668zm-30.081-25.137a1.426 1.426 0 0 1-1.425-1.425v-8.623c0-.786.639-1.425 1.425-1.425h31.447c.786 0 1.425.639 1.425 1.425v8.623c0 .786-.639 1.425-1.425 1.425h-31.447zm7.883 6.514h15.684v18.623h-15.684V84.865zm-78.726 18.623V50.929h27.03v52.558h-27.03zm146.106 0V50.929h27.03v52.558h-27.03zM145.469 35.889c0-4.7 3.824-8.524 8.524-8.524H337.15c4.7 0 8.524 3.824 8.524 8.524 0 4.702-3.824 8.526-8.524 8.526H153.992c-4.699 0-8.523-3.824-8.523-8.526zm188.407 457.173c0 6.847-5.57 12.417-12.417 12.417H169.687c-6.847 0-12.417-5.57-12.417-12.417v-19.758h176.606v19.758zm56.53-79.98c0 29.607-24.088 53.696-53.698 53.696H154.435c-29.607 0-53.696-24.088-53.696-53.696V163.697c0-29.607 24.088-53.696 53.696-53.696h182.272c29.61 0 53.698 24.088 53.698 53.696v249.385z"></path><path d="M334.639 150.741H156.504c-11.32 0-20.529 9.208-20.529 20.526v234.245c0 11.318 9.208 20.526 20.529 20.526h178.135c11.32 0 20.529-9.208 20.529-20.526V171.267c0-11.318-9.209-20.526-20.529-20.526zm14.015 254.771c0 7.728-6.287 14.012-14.015 14.012H156.504c-7.728 0-14.015-6.285-14.015-14.012V171.267c0-7.728 6.287-14.012 14.015-14.012h178.135c7.728 0 14.015 6.285 14.015 14.012v234.245zM122.2 43.795c1.779-.27 3-1.931 2.728-3.71-.541-3.579-.384-7.661.684-11.705.551-2.034-.964-4.102-3.147-4.102a3.266 3.266 0 0 0-3.17 2.516c-1.275 4.869-1.48 9.835-.804 14.272a3.253 3.253 0 0 0 3.709 2.729zm11.862-29.442a29.199 29.199 0 0 1 19.931-7.832h15.162a3.257 3.257 0 1 0 0-6.514h-15.162a35.69 35.69 0 0 0-24.363 9.572 3.257 3.257 0 0 0 4.432 4.774z"></path><path d="M316.881 263.257c-9.028 19.069-33.815 12.432-49.327 15.124-14.885 2.59-25.162 8.883-30.546 18.707-6.827 12.458-3.696 26.881-1.709 33.31-3.981 4.161-7.591 8.683-10.57 13.592a195.607 195.607 0 0 0-2.58-31.677c.088-.07.197-.106.277-.185.72-.705 17.577-17.524 14.643-42.21-2.595-21.821-19.686-42.299-50.8-60.866a3.26 3.26 0 0 0-4.723 1.662c-.87 2.343-21.068 57.703-.611 86.181 7.36 10.244 18.999 15.608 34.549 16.101 5.365 32.452.871 55.331.776 56.586a3.257 3.257 0 0 0 6.447.855c.983-5.231.899-17.845 16.588-34.607 22.832 5.917 48.61 7.46 66.087-8.241 23.735-21.317 17.921-61.716 17.664-63.426-.483-3.164-4.789-3.806-6.165-.906zm-130.65 29.844c-15.595-21.699-3.941-63.604.15-76.352 27.058 16.857 41.925 34.963 44.21 53.856 1.898 15.711-5.696 28.061-9.977 33.632-3.729-17.781-10.53-37.384-22.572-56.525a3.253 3.253 0 0 0-4.491-1.02 3.254 3.254 0 0 0-1.02 4.491c11.68 18.565 18.223 37.816 21.755 55.251-12.69-.733-22.162-5.134-28.055-13.333zm114.781 29.658c-12.216 10.96-31.143 13.526-56.256 7.7 21.953-19.888 52.398-29.947 52.864-30.099a3.256 3.256 0 1 0-2-6.198c-1.972.635-32.346 10.666-54.971 31.049-1.483-6.299-2.629-16.412 2.072-24.993 4.384-7.997 13.114-13.185 25.948-15.419 14.647-2.546 34.415 3.257 48.579-10.885.328 12.525-1.346 35.489-16.236 48.845z"></path></svg>