<svg xmlns="http://www.w3.org/2000/svg" enable-background="new 0 0 64 64" viewBox="0 0 64 64" id="biogas"><path fill="#48a1ff" d="M47,54v5c0,2.209-1.791,4-4,4H21c-2.209,0-4-1.791-4-4v-5c0-1.1,0.9-2,2-2h26C46.1,52,47,52.9,47,54z"></path><path fill="#2c39fd" d="M41,5v9c0,1.1-0.9,2-2,2H25c-1.1,0-2-0.9-2-2V5c0-1.1,0.9-2,2-2h14C40.1,3,41,3.9,41,5z"></path><path fill="#48a1ff" d="M32 17c-1.104 0-2-.896-2-2V9.999c0-1.104.896-2 2-2s2 .896 2 2V15C34 16.104 33.104 17 32 17zM25 17h-4c-1.104 0-2-.896-2-2V4c0-1.654 1.346-3 3-3h2c1.654 0 3 1.346 3 3v11C27 16.104 26.104 17 25 17zM43 17h-4c-1.104 0-2-.896-2-2V4c0-1.654 1.346-3 3-3h2c1.654 0 3 1.346 3 3v11C45 16.104 44.104 17 43 17z"></path><path fill="#aad7fd" d="M51,50c0,3.86-3.14,7-7,7H20c-3.86,0-7-3.14-7-7c0,0,4.55-7.43,4.55-15S13,20,13,20c0-3.86,3.14-7,7-7h24
			c3.86,0,7,3.14,7,7c0,0-6,5.09-6,15C45,44.91,51,50,51,50z"></path><rect width="38" height="30" x="13" y="20" fill="#2c39fd"></rect><path fill="#48a1ff" d="M40,29v4c0,4.41-3.59,8-8,8h-3.17l-1.42,1.41C27.02,42.8,26.51,43,26,43s-1.02-0.2-1.41-0.59
			c-0.79-0.78-0.79-2.04,0-2.82L26,38.17V35c0-4.41,3.59-8,8-8h4C39.1,27,40,27.9,40,29z"></path></svg>