<svg xmlns="http://www.w3.org/2000/svg" enable-background="new 0 0 64 64" viewBox="0 0 64 64" id="domestic-waste"><path fill="#d8d4c9" d="M59.56,53.698c-2.103-3.255-3.403-7.742-3.403-12.698c0-3.549,0.667-6.857,1.817-9.645l0.335-1.583
			l-15.75-0.538l-13.535,2.121c1.151,2.788,1.817,6.097,1.817,9.645c0,4.955-1.3,9.443-3.403,12.698l0.381,3.759l4.321,0.832
			l12.424-1.663l8.12,0.049l5.087-0.147L59.56,53.698z"></path><path fill="#e9e4d7" d="M57.772,56.527l1.789-2.83c-2.103-3.255-3.403-7.742-3.403-12.698c0-3.549,0.667-6.857,1.817-9.646
		l0.334-1.583l-11.964-0.409l-12.71,1.991c1.151,2.788,1.817,6.097,1.817,9.646c0,4.017-0.854,7.726-2.298,10.721
		c-0.718,1.489-0.986,3.153-0.819,4.798l0.095,0.938l2.429,0.467l9.705-1.299l4.412,0.027l0.198-0.027l4.305,0.026L57.772,56.527z"></path><path fill="#d3ce48" d="M47.992,24.578C46.122,21.468,43.05,17.674,39,15c-1.364-0.9-2.726-1.541-4-2c-1-5-1-11-1-11h-5
		c0.208,1.256,0.338,2.993,0,5c-0.519,3.079-1.904,5.388-3.024,6.845C24.41,14.448,22.622,15.418,21,17
		c-1.757,1.713-2.934,3.767-4,7c-2.627,7.969-0.925,12.012-2,17c-0.855,3.966-3.666,9.457-13,15c1.077,0.762,6.942,4.754,14,3
		c0.902-0.224,1.727-0.629,2.473-1.108c2.158-1.384,3.717-3.53,4.569-5.948C24.119,48.888,25.127,46.152,26,42
		c0.794-3.775,1.403-7.414,1.863-10.892l0.797-7.515C28.814,21.662,28.925,19.796,29,18l0,0c0,0,2.672,1.908,4.714,5.018
		l5.416,7.341l10.163,0.362l0.359-4.47L47.992,24.578z"></path><path fill="#ece755" d="M39.13,30.359l10.163,0.362l0.359-4.471l-1.66-1.672C46.122,21.468,43.05,17.674,39,15
		c-1.364-0.9-2.726-1.541-4-2c-1-5-1-11-1-11h-0.556c-0.99,0-1.792,0.802-1.792,1.792v4.951c0,2.395-1.144,4.647-3.078,6.06l0,0
		c-0.75,0.547-1.391,1.229-1.892,2.011l-1.73,2.7c-2.723,4.248-4.261,9.145-4.458,14.187l0,0
		c-0.303,7.795-3.808,15.121-9.686,20.249l-4.818,4.203C8.555,59.18,12.092,59.971,16,59c0.901-0.224,1.725-0.629,2.471-1.107
		c2.159-1.384,3.718-3.53,4.571-5.948C24.119,48.888,25.127,46.153,26,42c0.794-3.775,1.403-7.414,1.863-10.892l0.797-7.515
		C28.814,21.663,28.925,19.796,29,18c0,0,2.672,1.908,4.714,5.018L39.13,30.359z"></path><path fill="#86ee88" d="M27.439,53.698c2.962,1.764,4.96,1.774,6.324,1.302c1.903-0.658,2.875-3,5.842-3
		c1.947,0,2.921,0,3.895,0c0.974,0,1.947,0,3.895,0c2.967,0,3.939,2.342,5.842,3c1.363,0.471,3.362,0.462,6.324-1.302
		C60.265,54.789,61.133,55.215,62,56c-0.643,3.879-3.487,6-6.862,6c-2.573,0-5.147,0-6.736-1.262
		c-0.246-0.195-0.484-0.373-0.716-0.538C46.443,59.317,45.322,59,43.5,59c-1.822,0-2.943,0.317-4.186,1.2
		c-0.232,0.165-0.47,0.343-0.716,0.538C37.009,62,34.435,62,31.862,62c-3.375,0-6.219-2.121-6.862-6
		C25.867,55.216,26.735,54.789,27.439,53.698z"></path><path fill="#b6b1a5" d="M37.601 48.945L37.6 48.944c-.351-.342-.406-.889-.117-1.284 1.889-2.577 2.117-6.809 2.119-8.67.001-.525.411-.954.934-.988l.006 0c.573-.037 1.063.415 1.064.989.002 2.085-.265 6.764-2.505 9.843C38.746 49.321 38.032 49.365 37.601 48.945zM54.24 50.972c-.421.41-1.101.366-1.478-.085-3.404-4.07-3.446-8.68-3.446-8.887V40c0-.552.447-.999.999-.999h.002c.552 0 .999.447.999.999V42c0 .041.057 4.121 3.007 7.634C54.653 50.027 54.607 50.614 54.24 50.972L54.24 50.972z"></path><path fill="#f3f0a2" d="M13.983,50.98l-0.002-0.002c-0.347-0.415-0.289-1.021,0.107-1.388
			c1.911-1.771,3.242-3.754,3.963-5.907c0.794-2.372,0.859-5.028,0.948-8.704c0.016-0.656,0.022-1.315,0.016-1.969
			c-0.004-0.547,0.424-0.996,0.971-1.01h0c0.557-0.014,1.024,0.428,1.028,0.985c0.006,0.678,0,1.361-0.017,2.039
			c-0.094,3.854-0.162,6.635-1.051,9.293c-0.833,2.489-2.356,4.763-4.535,6.772C15,51.471,14.344,51.412,13.983,50.98z"></path><path fill="#56524e" d="M48.111,13.698l-1.433-1.396c-4.358,4.477-4.355,11.023-4.218,13.184
		c-0.572-1.874-1.471-3.593-2.677-5.109c-1.424-1.791-3.272-3.269-5.346-4.277L33.563,17.9c1.806,0.878,3.415,2.165,4.654,3.723
		c1.056,1.327,1.844,2.834,2.344,4.486l0.408,1.317l1.699-0.525l0.307,1.463l1.957-0.411l-0.439-2.072
		C44.484,25.805,43.645,18.285,48.111,13.698z"></path><path fill="#86ee88" d="M47.724,34.627c1.908,0.735,4.081,0.44,5.659-0.883c0.739-0.619,1.658-1.241,2.774-1.744
		c2.512-1.131,4.758-1.092,5.842-1v-2c-0.473-4.26-3.339-6-6.862-6c-2.573,0-5.147,0-6.736,1.262
		c-0.246,0.195-0.484,0.373-0.716,0.538C46.443,25.683,45.322,26,43.5,26c-1.822,0-2.943-0.317-4.186-1.2
		c-0.232-0.165-0.47-0.343-0.716-0.538C37.009,23,34.435,23,31.862,23c-3.523,0-6.39,1.74-6.862,6v2c1.084-0.092,3.33-0.131,5.842,1
		c1.117,0.503,2.035,1.125,2.774,1.744c1.579,1.323,3.752,1.618,5.659,0.883l2.116-0.815c1.36-0.524,2.858-0.524,4.217,0
		L47.724,34.627z"></path><path fill="#aaf66f" d="M55.138,23c-2.573,0-5.147,0-6.735,1.262c-0.246,0.195-0.484,0.373-0.716,0.538
		C46.443,25.683,45.322,26,43.5,26s-2.943-0.317-4.186-1.2c-0.232-0.165-0.47-0.343-0.716-0.538C37.009,23,34.435,23,31.862,23
		c-0.101,0-0.199,0.007-0.299,0.009c1.692,2.406,5.639,7.018,12.873,10.496c0.398,0.064,0.791,0.16,1.173,0.307l2.116,0.815
		c1.908,0.735,4.081,0.44,5.659-0.883c0.739-0.619,1.658-1.241,2.774-1.744c2.512-1.131,4.758-1.092,5.842-1v-2
		C61.527,24.74,58.661,23,55.138,23z"></path><path fill="#f3ffe4" d="M60.355,28.779c-0.712,0.682-2.908-0.224-4.069-1.633c-0.466-0.566-1.305-1.866-0.851-2.549
		c0.506-0.76,2.489-0.57,3.701,0.393C60.462,26.041,61.021,28.14,60.355,28.779z"></path><path fill="#aaf66f" d="M43.5,59c1.822,0,2.943,0.317,4.186,1.2c0.232,0.165,0.47,0.343,0.716,0.538
		C49.991,62,52.565,62,55.138,62c3.375,0,6.219-2.122,6.862-6c-0.867-0.784-1.735-1.211-2.44-2.302
		c-2.962,1.764-4.96,1.774-6.324,1.302c-1.903-0.658-2.875-3-5.842-3c-1.947,0-2.921,0-3.895,0s-1.947,0-3.895,0
		c-0.154,0-0.281,0.03-0.424,0.042l-2.951,1.256c-0.827,0.656-1.536,1.38-2.467,1.702c-0.48,0.166-1.044,0.266-1.695,0.257
		c-0.022,0.687,0.445,3.037,7.332,4.885C40.609,59.306,41.721,59,43.5,59z"></path><path fill="#f3ffe4" d="M55.661,60.158c-0.682-0.712,0.224-2.908,1.633-4.069c0.566-0.466,1.866-1.305,2.549-0.851
		c0.76,0.506,0.57,2.489-0.393,3.701C58.398,60.264,56.299,60.824,55.661,60.158z"></path><path d="M55.138,22.009c-2.475,0-5.018,0.014-6.86,1.151c-0.748-1.153-1.799-2.593-3.136-4.09c0.53-1.853,1.43-3.782,2.969-5.363
		l-1.433-1.395c-1.506,1.546-2.481,3.342-3.12,5.117c-1.171-1.135-2.493-2.254-4.008-3.254c-1.145-0.756-2.378-1.395-3.674-1.903
		C35.011,7.542,35,2.065,35,2.009c0-0.553-0.448-1-1-1h-5c-0.294,0-0.573,0.129-0.763,0.354c-0.19,0.224-0.272,0.521-0.224,0.81
		c0.259,1.564,0.259,3.136,0,4.671c-0.459,2.728-1.67,4.837-2.667,6.184c-1.923,0.778-3.62,1.876-5.045,3.267
		c-1.871,1.822-3.142,4.036-4.252,7.402c-1.652,5.011-1.645,8.519-1.638,11.613c0.004,1.957,0.007,3.646-0.39,5.489
		c-1.133,5.257-5.35,10.085-12.533,14.352c-0.291,0.173-0.475,0.481-0.488,0.819c-0.014,0.339,0.145,0.661,0.422,0.856
		c1.366,0.966,5.615,3.621,10.985,3.621c1.226,0,2.511-0.139,3.833-0.467c0.926-0.229,1.833-0.634,2.771-1.236
		c2.247-1.44,4.013-3.734,4.973-6.458l0.207-0.586c1.005-2.847,1.955-5.535,2.786-9.484c0.632-3.006,1.152-6.065,1.596-9.118
		c0.816,2.437,1.268,5.132,1.268,7.912c0,4.602-1.152,8.918-3.243,12.154c-0.393,0.608-0.863,0.974-1.408,1.396
		c-0.284,0.221-0.573,0.446-0.863,0.707c-0.252,0.229-0.371,0.57-0.315,0.905c0.688,4.153,3.769,6.837,7.849,6.837
		c2.702,0,5.495,0,7.357-1.479c0.231-0.184,0.455-0.351,0.673-0.506c1.069-0.76,1.979-1.016,3.607-1.016s2.538,0.256,3.607,1.016
		c0.219,0.155,0.442,0.322,0.673,0.506c1.862,1.479,4.656,1.479,7.357,1.479c4.08,0,7.16-2.684,7.849-6.838
		c0.056-0.335-0.063-0.677-0.315-0.905c-0.29-0.262-0.579-0.487-0.864-0.708c-0.544-0.422-1.014-0.786-1.407-1.395
		c-2.091-3.236-3.243-7.553-3.243-12.154c0-3.119,0.556-6.14,1.578-8.796c1.25-0.268,2.359-0.277,3.18-0.208
		c0.284,0.031,0.555-0.07,0.761-0.26S63,31.289,63,31.009v-2c0-0.037-0.002-0.073-0.006-0.11
		C62.508,24.519,59.645,22.009,55.138,22.009z M46.625,24.304c-0.662,0.389-1.32,0.59-2.188,0.666
		c-0.026-0.784-0.015-2.003,0.181-3.426C45.337,22.427,46.009,23.351,46.625,24.304z M22.307,51.032l-0.208,0.589
		c-0.812,2.306-2.292,4.237-4.166,5.438c-0.752,0.482-1.463,0.803-2.174,0.979C10.7,59.3,6.224,57.377,3.884,56.024
		c6.85-4.363,10.915-9.338,12.094-14.805c0.442-2.054,0.438-3.929,0.435-5.915c-0.006-2.943-0.013-6.279,1.538-10.982
		c1.016-3.081,2.102-4.992,3.749-6.598c1.296-1.264,2.856-2.253,4.637-2.938c0.171-0.066,0.321-0.179,0.434-0.324
		c1.666-2.168,2.779-4.688,3.217-7.288c0.231-1.372,0.281-2.77,0.151-4.166h2.877c0.044,1.936,0.23,6.322,1.005,10.196
		c0.068,0.344,0.312,0.626,0.642,0.744c1.343,0.484,2.618,1.121,3.788,1.895c1.547,1.021,3.064,2.317,4.473,3.782
		c-0.486,2.189-0.533,4.148-0.493,5.334c-0.058-0.006-0.111-0.015-0.167-0.022c-0.574-1.655-1.396-3.189-2.48-4.551
		c-1.424-1.789-3.272-3.268-5.345-4.276l-0.875,1.799c1.807,0.879,3.416,2.166,4.655,3.723c0.535,0.672,0.999,1.392,1.394,2.151
		c-0.13-0.096-0.257-0.187-0.391-0.294c-1.311-1.04-3.085-1.344-4.961-1.435c-2.071-2.974-4.568-4.779-4.678-4.857
		c-0.298-0.215-0.69-0.246-1.02-0.085c-0.33,0.161-0.545,0.49-0.56,0.856c-0.069,1.652-0.177,3.323-0.302,4.98
		c-2.081,1.1-3.38,3.138-3.693,5.952C24.002,28.935,24,28.972,24,29.009v2c0,0.28,0.117,0.547,0.323,0.736
		c0.206,0.188,0.478,0.29,0.761,0.26c0.462-0.038,1.017-0.052,1.635-0.01c-0.458,3.282-1.018,6.576-1.698,9.808
		C24.218,45.623,23.29,48.251,22.307,51.032z M31.712,22.014c-0.693,0.009-1.345,0.08-1.956,0.207
		c0.05-0.716,0.105-1.43,0.145-2.146C30.441,20.582,31.076,21.245,31.712,22.014z M60.582,56.138
		c0.106,0.083,0.214,0.166,0.322,0.253c-0.684,2.864-2.85,4.618-5.766,4.618c-2.359,0-4.798,0-6.114-1.045
		c-0.261-0.207-0.512-0.396-0.758-0.57c-1.403-0.996-2.74-1.385-4.766-1.385s-3.362,0.389-4.766,1.385
		c-0.246,0.175-0.498,0.363-0.759,0.57c-1.315,1.045-3.754,1.045-6.113,1.045c-2.916,0-5.082-1.754-5.766-4.618
		c0.108-0.086,0.215-0.169,0.321-0.251c0.432-0.335,0.872-0.688,1.293-1.157c1.601,0.84,3.094,1.288,4.448,1.288
		c0.677,0,1.321-0.105,1.931-0.316c0.898-0.311,1.583-0.885,2.245-1.439c0.964-0.808,1.796-1.506,3.271-1.506h7.789
		c1.475,0,2.307,0.698,3.271,1.506c0.662,0.555,1.346,1.129,2.244,1.439c1.834,0.634,3.98,0.303,6.388-0.962
		C59.716,55.456,60.153,55.805,60.582,56.138z M58.178,53.325c-1.815,0.92-3.366,1.171-4.615,0.739
		c-0.549-0.189-1.042-0.603-1.613-1.081c-1.049-0.88-2.354-1.974-4.556-1.974h-7.789c-2.202,0-3.507,1.094-4.556,1.974
		c-0.57,0.479-1.063,0.892-1.613,1.081c-1.249,0.433-2.799,0.181-4.615-0.739c1.947-3.43,3.021-7.749,3.021-12.316
		c0-2.766-0.4-5.473-1.158-7.952c0.814,0.393,1.587,0.875,2.289,1.463c1.822,1.527,4.374,1.929,6.662,1.05l2.116-0.815
		c1.128-0.433,2.37-0.434,3.498,0.001l2.116,0.814c0.802,0.309,1.637,0.459,2.461,0.459c1.526,0,3.017-0.518,4.2-1.509
		c0.703-0.589,1.476-1.071,2.29-1.463c-0.758,2.48-1.158,5.187-1.158,7.952C55.158,45.576,56.232,49.895,58.178,53.325z M61,29.968
		c-1.436,0.002-3.289,0.245-5.253,1.129c-1.077,0.485-2.088,1.121-3.006,1.89c-1.265,1.061-3.051,1.336-4.658,0.716l-2.115-0.813
		c-1.592-0.616-3.346-0.613-4.936-0.001l-2.116,0.814c-1.608,0.62-3.392,0.345-4.658-0.716c-0.917-0.768-1.928-1.403-3.005-1.89
		c-1.964-0.884-3.817-1.127-5.253-1.129v-0.902c0.488-4.177,3.454-5.057,5.862-5.057c2.359,0,4.798,0,6.114,1.045
		c0.261,0.207,0.512,0.396,0.758,0.57c1.403,0.996,2.74,1.385,4.766,1.385s3.362-0.389,4.766-1.385
		c0.246-0.175,0.498-0.363,0.759-0.57c1.315-1.045,3.754-1.045,6.113-1.045c2.408,0,5.375,0.88,5.862,5.057V29.968z"></path><path d="M39.581 38.073c.004.07.414 7.102-2.64 10.238l1.433 1.395c3.676-3.774 3.224-11.438 3.203-11.762L39.581 38.073zM51.316 39.009h-2v3c0 .221.047 5.455 4.178 9.697l1.433-1.395c-3.546-3.643-3.611-8.259-3.611-8.303V39.009zM19 34.988c-.089 3.675-.154 6.331-.948 8.703-.809 2.418-2.388 4.621-4.693 6.551l1.283 1.533c2.593-2.169 4.379-4.676 5.307-7.449.889-2.657.958-5.439 1.051-9.293.025-1.016.025-2.042 0-3.049L19 32.033C19.024 33.008 19.024 34.001 19 34.988z"></path></svg>