<svg xmlns="http://www.w3.org/2000/svg" width="64" height="64" enable-background="new 0 0 64 64" viewBox="0 0 64 64" id="free-food"><path fill="#F6BB42" d="M50,7v6.01l-2,2l-2-2l-2,2l-2-2l-2,2l-2-2V7c0-3.31,2.69-6,6-6C47.32,1,50,3.69,50,7z"></path><polygon fill="#5D9CEC" points="22 13.01 20.01 15 20.01 9 32 9 32 15.01 30 13.01 28 15.01 26 13.01 24 15.01"></polygon><rect width="11.99" height="3" x="17.01" y="3" fill="#CCD1D9"></rect><polygon fill="#4A89DC" points="14.01 13.01 14.01 9 20.01 9 20.01 15 20.01 15.01 20 15.01 18 13.01 16 15.01 14.01 13.02"></polygon><polygon fill="#CCD1D9" points="20.01 9 14.01 9 17.01 6"></polygon><polygon fill="#E6E9ED" points="17.01 6 29 6 32 9 20.01 9"></polygon><polygon fill="#EAB081" points="20 63 8 63 14 58"></polygon><polygon fill="#FFD2A6" points="14 13.01 14 58 8 63 8 15.01 10 13.01 12 15.01"></polygon><polygon fill="#F7C292" points="20 46.01 20 63 14 58 14 13.01 14.01 13.02 16 15.01 18 13.01 20 15.01 20 32.01"></polygon><polygon fill="#FFD2A6" points="56 46.01 56 63 20 63 20 46.01 55.99 46.01"></polygon><polygon fill="#E6E9ED" points="55.99 32.01 20 32.01 20 46.01 55.99 46.01 56 46.01 56 32.01"></polygon><polygon fill="#FFD2A6" points="26 13.01 28 15.01 30 13.01 32 15.01 34 13.01 36 15.01 38 13.01 40 15.01 42 13.01 44 15.01 46 13.01 48 15.01 50 13.01 52 15.01 54 13.01 56 15.01 56 32.01 55.99 32.01 20 32.01 20 15.01 20.01 15.01 20.01 15 22 13.01 24 15.01"></polygon><path fill="#EDAB37" d="M45.999,11h-3.995c-0.553,0-1-0.447-1-1s0.447-1,1-1h3.995c0.553,0,1,0.447,1,1S46.552,11,45.999,11z"></path><path fill="#656D78" d="M26.989,43.006c-0.553,0-1-0.447-1-1v-6c0-0.553,0.447-1,1-1s1,0.447,1,1v6
					C27.989,42.559,27.542,43.006,26.989,43.006z"></path><path fill="#656D78" d="M29.989 37.006h-3c-.553 0-1-.447-1-1s.447-1 1-1h3c.553 0 1 .447 1 1S30.542 37.006 29.989 37.006zM28.989 40.006h-2c-.553 0-1-.447-1-1s.447-1 1-1h2c.553 0 1 .447 1 1S29.542 40.006 28.989 40.006zM32.989 43.006c-.553 0-1-.447-1-1v-6c0-.553.447-1 1-1s1 .447 1 1v6C33.989 42.559 33.542 43.006 32.989 43.006z"></path><path fill="#656D78" d="M35.99,43.006c-0.323,0-0.641-0.156-0.833-0.445l-2-3c-0.307-0.46-0.183-1.08,0.277-1.387
					c0.461-0.306,1.08-0.183,1.387,0.277l2,3c0.307,0.46,0.183,1.08-0.277,1.387C36.373,42.951,36.181,43.006,35.99,43.006z"></path><path fill="#656D78" d="M34.489,40.006c-0.553,0-1-0.447-1-1s0.447-1,1-1c0.275,0,0.5-0.225,0.5-0.5s-0.225-0.5-0.5-0.5
					c-0.553,0-1-0.447-1-1s0.447-1,1-1c1.379,0,2.5,1.121,2.5,2.5S35.868,40.006,34.489,40.006z"></path><path fill="#656D78" d="M34.489 40.006h-1.5c-.553 0-1-.447-1-1s.447-1 1-1h1.5c.553 0 1 .447 1 1S35.042 40.006 34.489 40.006zM34.489 37.006h-1.5c-.553 0-1-.447-1-1s.447-1 1-1h1.5c.553 0 1 .447 1 1S35.042 37.006 34.489 37.006zM39.489 43.006c-.553 0-1-.447-1-1v-6c0-.553.447-1 1-1s1 .447 1 1v6C40.489 42.559 40.042 43.006 39.489 43.006z"></path><path fill="#656D78" d="M42.489 43.006h-3c-.553 0-1-.447-1-1s.447-1 1-1h3c.553 0 1 .447 1 1S43.042 43.006 42.489 43.006zM42.489 37.006h-3c-.553 0-1-.447-1-1s.447-1 1-1h3c.553 0 1 .447 1 1S43.042 37.006 42.489 37.006zM41.489 40.006h-2c-.553 0-1-.447-1-1s.447-1 1-1h2c.553 0 1 .447 1 1S42.042 40.006 41.489 40.006zM45.989 43.006c-.553 0-1-.447-1-1v-6c0-.553.447-1 1-1s1 .447 1 1v6C46.989 42.559 46.542 43.006 45.989 43.006z"></path><path fill="#656D78" d="M48.989 43.006h-3c-.553 0-1-.447-1-1s.447-1 1-1h3c.553 0 1 .447 1 1S49.542 43.006 48.989 43.006zM48.989 37.006h-3c-.553 0-1-.447-1-1s.447-1 1-1h3c.553 0 1 .447 1 1S49.542 37.006 48.989 37.006zM47.989 40.006h-2c-.553 0-1-.447-1-1s.447-1 1-1h2c.553 0 1 .447 1 1S48.542 40.006 47.989 40.006z"></path></svg>