<svg xmlns="http://www.w3.org/2000/svg" data-name="Layer 1" viewBox="0 0 64 64" id="einstein-formula"><path fill="#2a2f63" d="M63,8.07a1,1,0,0,0,1-1V2.61a1,1,0,0,0-1-1H1a1,1,0,0,0-1,1V7.1a1,1,0,0,0,1,1h2.1V40.16H1a1,1,0,0,0-1,1v4.49a1,1,0,0,0,1,1H30L18.36,60.77a1,1,0,0,0,.13,1.37A1,1,0,0,0,19.85,62L32,47.15,44.15,62a.94.94,0,0,0,.75.36,1,1,0,0,0,.61-.22,1,1,0,0,0,.13-1.37L34.05,46.59H63a1,1,0,0,0,1-1V41.13a1,1,0,0,0-1-1h-2.1V8.07Zm-1,34v2.55H1.94V42.1ZM5,40.16V8.07H59V40.16Zm-3.07-34V3.58H62.06V6.13Z"></path><rect width="60.12" height="2.55" x="1.94" y="42.1" fill="#e2e2e2"></rect><rect width="60.12" height="1.28" x="1.94" y="43.38" fill="#d6d6d6"></rect><rect width="60.12" height="2.55" x="1.94" y="3.58" fill="#e2e2e2"></rect><rect width="60.12" height="1.28" x="1.94" y="3.58" fill="#ededed"></rect><path fill="#f4cf73" d="M5,8.07V40.16H59V8.07ZM19.75,28.39a.81.81,0,0,1-.05.21.28.28,0,0,1-.08.11.2.2,0,0,1-.11,0H15.3a.56.56,0,0,1-.36-.12.55.55,0,0,1-.14-.41V20.9a.47.47,0,0,1,.5-.54h4.19a.17.17,0,0,1,.1,0,.18.18,0,0,1,.08.12.88.88,0,0,1,0,.2,1.57,1.57,0,0,1,0,.32,1.37,1.37,0,0,1,0,.31,1,1,0,0,1,0,.21.23.23,0,0,1-.08.11.17.17,0,0,1-.1,0h-3v2H19a.21.21,0,0,1,.1,0,.43.43,0,0,1,.09.1.93.93,0,0,1,.05.21,2.73,2.73,0,0,1,0,.31,2.82,2.82,0,0,1,0,.31.74.74,0,0,1-.05.19c0,.05,0,.09-.09.11a.14.14,0,0,1-.1,0H16.49v2.36h3a.2.2,0,0,1,.11,0,.25.25,0,0,1,.08.12.83.83,0,0,1,.05.2,2.85,2.85,0,0,1,0,.31A2.58,2.58,0,0,1,19.75,28.39Zm6.59-1.59a.25.25,0,0,1-.22.14H21.18A.26.26,0,0,1,21,26.8a1.32,1.32,0,0,1-.06-.48,1.36,1.36,0,0,1,.06-.48.23.23,0,0,1,.22-.14h4.94a.23.23,0,0,1,.22.14,1.16,1.16,0,0,1,.06.48A1.13,1.13,0,0,1,26.34,26.8Zm0-2.62a.24.24,0,0,1-.22.15H21.18a.25.25,0,0,1-.22-.15,1.36,1.36,0,0,1-.06-.48,1.4,1.4,0,0,1,.06-.48.23.23,0,0,1,.22-.14h4.94a.23.23,0,0,1,.22.14,1.19,1.19,0,0,1,.06.48A1.16,1.16,0,0,1,26.34,24.18Zm11.31,4.33a.16.16,0,0,1,0,.12s-.06.06-.12.08l-.25.05a2.36,2.36,0,0,1-.4,0,2.24,2.24,0,0,1-.39,0,1.11,1.11,0,0,1-.24-.05.26.26,0,0,1-.13-.08.16.16,0,0,1,0-.12V21.69h0L33.6,28.51a.3.3,0,0,1-.09.13.38.38,0,0,1-.15.09,1,1,0,0,1-.26,0h-.75a.83.83,0,0,1-.26-.06.48.48,0,0,1-.16-.08.23.23,0,0,1-.08-.12l-2.34-6.82h0v6.82a.21.21,0,0,1,0,.12.3.3,0,0,1-.14.08,1,1,0,0,1-.25.05,3.72,3.72,0,0,1-.77,0,1.33,1.33,0,0,1-.26-.05.28.28,0,0,1-.12-.08.16.16,0,0,1,0-.12V21a.69.69,0,0,1,.17-.5.63.63,0,0,1,.47-.18h1.11a2,2,0,0,1,.52.05,1,1,0,0,1,.37.16.86.86,0,0,1,.26.3,2.47,2.47,0,0,1,.18.45l1.82,5h0l1.88-5a2.11,2.11,0,0,1,.18-.45,1.07,1.07,0,0,1,.23-.3.76.76,0,0,1,.32-.17,1.38,1.38,0,0,1,.42-.05H37a.93.93,0,0,1,.31,0,.6.6,0,0,1,.21.14.48.48,0,0,1,.12.21.92.92,0,0,1,0,.29Zm7.63-.76c0,.08,0,.14,0,.2l-.06.13a.6.6,0,0,1-.11.14,1.05,1.05,0,0,1-.27.19,4.58,4.58,0,0,1-.49.23c-.21.06-.43.12-.68.17a4.32,4.32,0,0,1-.82.07,4.52,4.52,0,0,1-1.56-.26,3.09,3.09,0,0,1-1.17-.8,3.54,3.54,0,0,1-.75-1.32,6,6,0,0,1-.26-1.84,6.17,6.17,0,0,1,.28-1.9,4,4,0,0,1,.8-1.39,3.2,3.2,0,0,1,1.23-.85A4,4,0,0,1,43,20.23a3.71,3.71,0,0,1,.67.06,3.52,3.52,0,0,1,.6.14,3.77,3.77,0,0,1,.49.22,1.15,1.15,0,0,1,.31.21.64.64,0,0,1,.12.14.59.59,0,0,1,.06.16c0,.06,0,.12,0,.21a2.72,2.72,0,0,1,0,.3c0,.14,0,.25,0,.33a1,1,0,0,1,0,.23.36.36,0,0,1-.08.12.21.21,0,0,1-.11,0,.44.44,0,0,1-.24-.12L44.38,22a2.93,2.93,0,0,0-.56-.25,2.28,2.28,0,0,0-.78-.12,1.85,1.85,0,0,0-1.56.79,2.69,2.69,0,0,0-.42.92,5,5,0,0,0-.14,1.21,4.78,4.78,0,0,0,.15,1.28,2.55,2.55,0,0,0,.43.89,1.91,1.91,0,0,0,.68.53,2.57,2.57,0,0,0,.9.16,2.53,2.53,0,0,0,1.35-.34,2.51,2.51,0,0,0,.39-.23.53.53,0,0,1,.24-.11.15.15,0,0,1,.1,0,.19.19,0,0,1,.07.11.87.87,0,0,1,0,.21c0,.09,0,.22,0,.37Zm3.91-3.64a1,1,0,0,1,0,.12.14.14,0,0,1,0,.07.09.09,0,0,1-.07,0H46.24l-.15,0a.21.21,0,0,1-.1-.06.33.33,0,0,1-.05-.12.72.72,0,0,1,0-.22,1.34,1.34,0,0,1,0-.21.85.85,0,0,1,0-.17l.08-.13.13-.15.84-.9a3.2,3.2,0,0,0,.41-.48,3,3,0,0,0,.24-.4,1.73,1.73,0,0,0,.13-.33,1.41,1.41,0,0,0,0-.28.86.86,0,0,0,0-.24.82.82,0,0,0-.12-.2.44.44,0,0,0-.19-.12.64.64,0,0,0-.28-.05,1.2,1.2,0,0,0-.4.06.9.9,0,0,0-.3.12,1.42,1.42,0,0,0-.22.13.24.24,0,0,1-.13.06l-.06,0a.2.2,0,0,1,0-.08s0-.09,0-.15,0-.12,0-.21A.66.66,0,0,1,46,20a.36.36,0,0,1,0-.1.13.13,0,0,1,0-.08.22.22,0,0,1,.07-.07.41.41,0,0,1,.16-.11,1.92,1.92,0,0,1,.32-.14,2.2,2.2,0,0,1,.41-.12,2.35,2.35,0,0,1,.47,0,2.19,2.19,0,0,1,.66.09,1.53,1.53,0,0,1,.47.27,1.11,1.11,0,0,1,.28.41,1.27,1.27,0,0,1,.1.52,2.4,2.4,0,0,1,0,.46,1.9,1.9,0,0,1-.18.5,5.91,5.91,0,0,1-.41.59c-.18.21-.41.46-.69.74l-.57.59H49a.1.1,0,0,1,.07,0,.21.21,0,0,1,0,.07.4.4,0,0,1,0,.13,1,1,0,0,1,0,.18A1.09,1.09,0,0,1,49.19,24.11Z"></path><rect width="3.43" height="32.1" x="5.01" y="8.07" fill="#eac36c"></rect><rect width="3.43" height="32.1" x="55.55" y="8.07" fill="#ffdc7c"></rect><path fill="#2a2f63" d="M19.77 28.07a2.58 2.58 0 0 1 0 .32.81.81 0 0 1-.05.21.28.28 0 0 1-.08.11.2.2 0 0 1-.11 0H15.3a.56.56 0 0 1-.36-.12.55.55 0 0 1-.14-.41V20.9a.47.47 0 0 1 .5-.54h4.19a.17.17 0 0 1 .1 0 .18.18 0 0 1 .08.12.88.88 0 0 1 0 .2 1.57 1.57 0 0 1 0 .32 1.37 1.37 0 0 1 0 .31 1 1 0 0 1 0 .21.23.23 0 0 1-.08.11.17.17 0 0 1-.1 0h-3v2H19a.21.21 0 0 1 .1 0 .43.43 0 0 1 .09.1.93.93 0 0 1 .05.21 2.73 2.73 0 0 1 0 .31 2.82 2.82 0 0 1 0 .31.74.74 0 0 1-.05.19c0 .05 0 .09-.09.11a.14.14 0 0 1-.1 0H16.49v2.36h3a.2.2 0 0 1 .11 0 .25.25 0 0 1 .08.12.83.83 0 0 1 .05.2A2.85 2.85 0 0 1 19.77 28.07zM26.4 23.7a1.16 1.16 0 0 1-.06.48.24.24 0 0 1-.22.15H21.18a.25.25 0 0 1-.22-.15 1.36 1.36 0 0 1-.06-.48 1.4 1.4 0 0 1 .06-.48.23.23 0 0 1 .22-.14h4.94a.23.23 0 0 1 .22.14A1.19 1.19 0 0 1 26.4 23.7zM26.4 26.32a1.13 1.13 0 0 1-.06.48.25.25 0 0 1-.22.14H21.18A.26.26 0 0 1 21 26.8a1.32 1.32 0 0 1-.06-.48 1.36 1.36 0 0 1 .06-.48.23.23 0 0 1 .22-.14h4.94a.23.23 0 0 1 .22.14A1.16 1.16 0 0 1 26.4 26.32zM37.65 21v7.47a.16.16 0 0 1 0 .12s-.06.06-.12.08l-.25.05a2.36 2.36 0 0 1-.4 0 2.24 2.24 0 0 1-.39 0 1.11 1.11 0 0 1-.24-.05.26.26 0 0 1-.13-.08.16.16 0 0 1 0-.12V21.69h0L33.6 28.51a.3.3 0 0 1-.09.13.38.38 0 0 1-.15.09 1 1 0 0 1-.26 0h-.75a.83.83 0 0 1-.26-.06.48.48 0 0 1-.16-.08.23.23 0 0 1-.08-.12l-2.34-6.82h0v6.82a.21.21 0 0 1 0 .12.3.3 0 0 1-.14.08 1 1 0 0 1-.25.05 3.72 3.72 0 0 1-.77 0 1.33 1.33 0 0 1-.26-.05.28.28 0 0 1-.12-.08.16.16 0 0 1 0-.12V21a.69.69 0 0 1 .17-.5.63.63 0 0 1 .47-.18h1.11a2 2 0 0 1 .52.05 1 1 0 0 1 .37.16.86.86 0 0 1 .26.3 2.47 2.47 0 0 1 .18.45l1.82 5h0l1.88-5a2.11 2.11 0 0 1 .18-.45 1.07 1.07 0 0 1 .23-.3.76.76 0 0 1 .32-.17 1.38 1.38 0 0 1 .42-.05H37a.93.93 0 0 1 .31 0 .6.6 0 0 1 .21.14.48.48 0 0 1 .12.21A.92.92 0 0 1 37.65 21zM45.28 27.47v.28c0 .08 0 .14 0 .2l-.06.13a.6.6 0 0 1-.11.14 1.05 1.05 0 0 1-.27.19 4.58 4.58 0 0 1-.49.23c-.21.06-.43.12-.68.17a4.32 4.32 0 0 1-.82.07 4.52 4.52 0 0 1-1.56-.26 3.09 3.09 0 0 1-1.17-.8 3.54 3.54 0 0 1-.75-1.32 6 6 0 0 1-.26-1.84 6.17 6.17 0 0 1 .28-1.9 4 4 0 0 1 .8-1.39 3.2 3.2 0 0 1 1.23-.85A4 4 0 0 1 43 20.23a3.71 3.71 0 0 1 .67.06 3.52 3.52 0 0 1 .6.14 3.77 3.77 0 0 1 .49.22 1.15 1.15 0 0 1 .31.21.64.64 0 0 1 .12.14.59.59 0 0 1 .06.16c0 .06 0 .12 0 .21a2.72 2.72 0 0 1 0 .3c0 .14 0 .25 0 .33a1 1 0 0 1 0 .23.36.36 0 0 1-.08.12.21.21 0 0 1-.11 0 .44.44 0 0 1-.24-.12L44.38 22a2.93 2.93 0 0 0-.56-.25 2.28 2.28 0 0 0-.78-.12 1.85 1.85 0 0 0-1.56.79 2.69 2.69 0 0 0-.42.92 5 5 0 0 0-.14 1.21 4.78 4.78 0 0 0 .15 1.28 2.55 2.55 0 0 0 .43.89 1.91 1.91 0 0 0 .68.53 2.57 2.57 0 0 0 .9.16 2.53 2.53 0 0 0 1.35-.34 2.51 2.51 0 0 0 .39-.23.53.53 0 0 1 .24-.11.15.15 0 0 1 .1 0 .19.19 0 0 1 .07.11.87.87 0 0 1 0 .21C45.28 27.19 45.28 27.32 45.28 27.47zM49.2 23.92a1.09 1.09 0 0 1 0 .19 1 1 0 0 1 0 .12.14.14 0 0 1 0 .07.09.09 0 0 1-.07 0H46.24l-.15 0a.21.21 0 0 1-.1-.06.33.33 0 0 1-.05-.12.72.72 0 0 1 0-.22 1.34 1.34 0 0 1 0-.21.85.85 0 0 1 0-.17l.08-.13.13-.15.84-.9a3.2 3.2 0 0 0 .41-.48 3 3 0 0 0 .24-.4 1.73 1.73 0 0 0 .13-.33 1.41 1.41 0 0 0 0-.28.86.86 0 0 0 0-.24.82.82 0 0 0-.12-.2.44.44 0 0 0-.19-.12.64.64 0 0 0-.28-.05 1.2 1.2 0 0 0-.4.06.9.9 0 0 0-.3.12 1.42 1.42 0 0 0-.22.13.24.24 0 0 1-.13.06l-.06 0a.2.2 0 0 1 0-.08s0-.09 0-.15 0-.12 0-.21A.66.66 0 0 1 46 20a.36.36 0 0 1 0-.1.13.13 0 0 1 0-.08.22.22 0 0 1 .07-.07.41.41 0 0 1 .16-.11 1.92 1.92 0 0 1 .32-.14 2.2 2.2 0 0 1 .41-.12 2.35 2.35 0 0 1 .47 0 2.19 2.19 0 0 1 .66.09 1.53 1.53 0 0 1 .47.27 1.11 1.11 0 0 1 .28.41 1.27 1.27 0 0 1 .1.52 2.4 2.4 0 0 1 0 .46 1.9 1.9 0 0 1-.18.5 5.91 5.91 0 0 1-.41.59c-.18.21-.41.46-.69.74l-.57.59H49a.1.1 0 0 1 .07 0 .21.21 0 0 1 0 .07.4.4 0 0 1 0 .13A1 1 0 0 1 49.2 23.92z"></path></svg>