<svg xmlns="http://www.w3.org/2000/svg" enable-background="new 0 0 24 24" viewBox="0 0 24 24" id="google"><path fill="#303c42" d="M23.803 9.917a.5.5 0 0 0-.493-.417H12.5a.5.5 0 0 0-.5.5v4a.5.5 0 0 0 .5.5h6.031A7.005 7.005 0 0 1 12 19c-3.859 0-7-3.14-7-7s3.141-7 7-7c1.527 0 2.976.487 4.187 1.408.199.152.48.133.656-.044l2.859-2.86a.502.502 0 0 0-.035-.739A12.07 12.07 0 0 0 12 0C5.383 0 0 5.383 0 12s5.383 12 12 12a11.949 11.949 0 0 0 11.801-9.909c.133-.714.199-1.417.199-2.091 0-.628-.063-1.29-.197-2.083z"></path><path fill="#f44336" d="M12 1c2.369 0 4.691.776 6.598 2.195l-2.161 2.161A7.852 7.852 0 0 0 12 4C8.85 4 6.128 5.834 4.824 8.487L2.43 6.597C4.321 3.26 7.899 1 12 1z"></path><path fill="#ffeb3b" d="m1.97 7.507 2.456 1.939A7.946 7.946 0 0 0 4 12c0 .871.145 1.707.403 2.492l-2.461 1.943a10.911 10.911 0 0 1 .028-8.928z"></path><path fill="#8bc34a" d="m2.397 17.35 2.399-1.894C6.089 18.139 8.828 20 12 20c1.536 0 2.981-.463 4.222-1.241l2.479 1.957A10.953 10.953 0 0 1 12 23c-4.124 0-7.72-2.284-9.603-5.65z"></path><path fill="#03a9f4" d="M22.817 13.914a10.924 10.924 0 0 1-3.337 6.144l-2.409-1.902a7.934 7.934 0 0 0 2.631-4.023.501.501 0 0 0-.482-.633H13v-3h9.882c.08.556.118 1.041.118 1.5 0 .613-.062 1.255-.183 1.914z"></path><path fill="#fff" d="m2.666 17.138-.269.212a11.043 11.043 0 0 0 2.08 2.633 10.982 10.982 0 0 1-1.811-2.845zM1.75 12.75c0-1.648.373-3.206 1.022-4.609l-.802-.634a10.911 10.911 0 0 0-.028 8.928l.352-.278a11 11 0 0 1-.544-3.407zM12.75 1.75c2.087 0 4.03.592 5.692 1.601l.155-.155A11.07 11.07 0 0 0 12 1C7.899 1 4.321 3.26 2.43 6.597l.812.641C5.146 3.96 8.686 1.75 12.75 1.75z" opacity=".2"></path><linearGradient id="a" x1="1.124" x2="22.872" y1="6.93" y2="17.071" gradientUnits="userSpaceOnUse"><stop offset="0" stop-color="#fff" stop-opacity=".2"></stop><stop offset="1" stop-color="#fff" stop-opacity="0"></stop></linearGradient><path fill="url(#a)" d="M23.803 9.917a.5.5 0 0 0-.493-.417H12.5a.5.5 0 0 0-.5.5v4a.5.5 0 0 0 .5.5h6.031A7.005 7.005 0 0 1 12 19c-3.859 0-7-3.14-7-7s3.141-7 7-7c1.527 0 2.976.487 4.187 1.408.199.152.48.133.656-.044l2.859-2.86a.502.502 0 0 0-.035-.739A12.07 12.07 0 0 0 12 0C5.383 0 0 5.383 0 12s5.383 12 12 12a11.949 11.949 0 0 0 11.801-9.909c.133-.714.199-1.417.199-2.091 0-.628-.063-1.29-.197-2.083z"></path></svg>