<svg xmlns="http://www.w3.org/2000/svg" viewBox="0 0 64 64" id="group"><path d="M58.20166,52.5,61.832,47.05469A.99992.99992,0,0,0,61,45.5H56.5a9.18481,9.18481,0,0,0-5.36316-8.33795,6.91912,6.91912,0,0,0-2.864-12.58814,9.19385,9.19385,0,0,0-5.3172-7.41241,6.90668,6.90668,0,1,0-7.626.00787,9.21647,9.21647,0,0,0-3.20788,2.43708,6.57652,6.57652,0,0,0-2.33558.00018,9.1854,9.1854,0,0,0-3.20574-2.43793,6.90669,6.90669,0,1,0-7.62677-.007,9.1931,9.1931,0,0,0-5.30707,7.34009A6.92005,6.92005,0,0,0,9.86316,37.16205,9.18481,9.18481,0,0,0,4.5,45.5H3a1.0069,1.0069,0,0,0-.832,1.55469L5.79834,52.5,2.168,57.94531a1.00712,1.00712,0,0,0,.83209,1.55463L18,59.5a.92.92,0,0,0,.466-.13031A1.04753,1.04753,0,0,0,19,58.5v-5H45v5a1.04711,1.04711,0,0,0,.534.86969A.92077.92077,0,0,0,46,59.5H61a1.00712,1.00712,0,0,0,.832-1.55469ZM54.5,45.5H53v-2a4.00427,4.00427,0,0,0-4-4H43.37476A7.21812,7.21812,0,0,1,54.5,45.5Zm-2.273-14.09082c-.20624,6.488-9.61267,6.486-9.81787-.00012C42.61536,24.92163,52.02173,24.92267,52.22705,31.40918Zm-18-20c.20612-6.48779,9.61322-6.48627,9.81836.00012C43.83929,17.897,34.43219,17.89545,34.22705,11.40918Zm4.91309,6.91113a7.18563,7.18563,0,0,1,7.11554,6.27014A6.9242,6.9242,0,0,0,43.493,37.1579,8.99923,8.99923,0,0,0,40.40253,39.5h-.32337a9.1949,9.1949,0,0,0-5.30481-7.33868,6.93725,6.93725,0,0,0-.57745-11.84943A7.20356,7.20356,0,0,1,39.14014,18.32031ZM38.05823,39.5H23.851A7.17912,7.17912,0,0,1,38.05823,39.5Zm-7.10364-18c6.48779.20612,6.48627,9.61316-.00012,9.81836C24.4668,31.11218,24.46832,21.70514,30.95459,21.5ZM17.86377,11.40918c.20618-6.48755,9.61255-6.48651,9.81787.00012C27.4754,17.89722,18.069,17.8952,17.86377,11.40918ZM22.77,18.32031a7.08694,7.08694,0,0,1,4.94659,1.98944,6.93705,6.93705,0,0,0-.58178,11.85157A9.1949,9.1949,0,0,0,21.83,39.5H20.59747A8.99923,8.99923,0,0,0,17.507,37.1579a6.93143,6.93143,0,0,0-1.88086-12.37451A7.18968,7.18968,0,0,1,22.77,18.32031ZM8.773,31.40918c.20624-6.488,9.61267-6.486,9.81787.00012C18.38464,37.89673,8.97827,37.89569,8.773,31.40918Zm4.90723,6.91113A7.11152,7.11152,0,0,1,17.62524,39.5H15a4.00427,4.00427,0,0,0-4,4v2H6.5A7.18812,7.18812,0,0,1,13.68018,38.32031ZM4.86865,57.5,7.832,53.05469a.99927.99927,0,0,0,0-1.10938L4.86865,47.5H11a23.13562,23.13562,0,0,0,.06946,2.68719.981.981,0,0,0,.13074.91242L16.00049,57.5ZM17,55.50067,15.49951,53.5H17ZM15,51.5a2.00229,2.00229,0,0,1-2-2v-6a2.00229,2.00229,0,0,1,2-2H49a2.00229,2.00229,0,0,1,2,2v6a2.00229,2.00229,0,0,1-2,2Zm32,2h1.50049L47,55.50067Zm.99951,4,4.80029-6.40039a.9811.9811,0,0,0,.13074-.91248A22.81885,22.81885,0,0,0,53,47.5h6.13135L56.168,51.94531a.99927.99927,0,0,0,0,1.10938L59.13135,57.5Z"></path><path d="M46 43.5H18a1.00011 1.00011 0 00.00006 2H46A1.00011 1.00011 0 0046 43.5zM40 47.5H24a1.00011 1.00011 0 00.00006 2H40A1.00011 1.00011 0 0040 47.5z"></path></svg>