<svg xmlns="http://www.w3.org/2000/svg" width="32" height="32" id="food"><g stroke-linecap="round" stroke-linejoin="round"><path fill="#faa41a" stroke="#faa41a" d="M17.29 11.162c-5.567.676-5.582 3.252-4.907 6.063l2.875 2.562c4.905 1.97 6.183-1.955 7.156-6.375z"></path><path fill="#faa41a" stroke="#383747" d="M22.542 13.677c2.016.036 3.63 2.369 3.605 5.21-.024 2.748-1.538 4.983-3.486 5.077-.32 0-11.06.011-11.403.017-1.707.043-3.602.081-4.584-1.01-1.024-1.14-1.032-3.798-.86-5.44.313-2.967 3.331-5.597 6.444-6.432.28-.076 2.014-.619 4.427-.105m-1.456 8.628a3.924 3.924 0 0 0 6.245-2.451c.036-.214 1.298-8.318 4.64-7.874.61.08 1.282.225 1.739-.185a1.4 1.4 0 0 0 .106-1.98 1.406 1.406 0 0 0-1.985-.106c.25-.25.523-.698.536-1.051a1.403 1.403 0 0 0-1.35-1.455c-.665-.025-1.35.395-1.408 1.028-.515 5.653-6.672 4.887-9.083 6.08-2.411 1.194-3.436 3.129-2.315 5.396"></path><path fill="none" stroke="#383747" d="M3.685 25.534h24.557c-.015.958-.198 1.78-1.205 1.946H5.174c-1.484-.254-1.248-1.195-1.489-1.946z"></path><path fill="none" stroke="#fff" d="M13.846 15.478a2.01 2.01 0 0 1 .58-1.439 2.01 2.01 0 0 1 1.43-.598"></path></g></svg>