<svg xmlns="http://www.w3.org/2000/svg" data-name="Layer 1" viewBox="0 0 512 512" id="ricksaw"><path fill="#7dc7a2" d="M440,323.5h28.5a3,3,0,0,1,3,3v37a3,3,0,0,1-3,3H440A21.5,21.5,0,0,1,418.5,345v0A21.5,21.5,0,0,1,440,323.5Z"></path><path fill="#56bc8d" d="M468.5,323.5h-20a3,3,0,0,1,3,3v37a3,3,0,0,1-3,3h20a3,3,0,0,0,3-3v-37A3,3,0,0,0,468.5,323.5Z"></path><circle cx="441.26" cy="450.95" r="53.55" fill="#8b8893"></circle><path fill="#787681" d="M441.26,397.39a54,54,0,0,0-10,.95,53.55,53.55,0,0,1,0,105.21,53.55,53.55,0,1,0,10-106.16Z"></path><circle cx="441.26" cy="450.95" r="20.63" fill="#fff"></circle><path fill="#8b8893" d="M286.52,416a7.5,7.5,0,0,1-7.5-7.5V344.33a7.5,7.5,0,1,1,15,0v64.14A7.5,7.5,0,0,1,286.52,416Z"></path><path fill="#aeadb3" d="M217.14,319.65H289.5A12.34,12.34,0,0,1,301.84,332v0a12.34,12.34,0,0,1-12.34,12.34H217.14a0,0,0,0,1,0,0V319.65a0,0,0,0,1,0,0Z"></path><path fill="#8b8893" d="M217.14,416a7.5,7.5,0,0,1-7.5-7.5V150.78a7.5,7.5,0,1,1,15,0V408.47A7.5,7.5,0,0,1,217.14,416Z"></path><path fill="#7dc7a2" d="M504.5,438.47H383.82v-81.2h17.06a106.72,106.72,0,0,1,103.62,81.2Z"></path><path fill="#56bc8d" d="M400.88,357.27H383.82v.8a106.71,106.71,0,0,1,90.68,80.4h30A106.72,106.72,0,0,0,400.88,357.27Z"></path><path fill="#7dc7a2" d="M431.7,285q-.4-7.4-1.29-14.47c-7.1-58.34-36.09-100.59-48.06-116.27l-44.21,2.61V379.55a30,30,0,0,1-30,30H172.85V348a29.48,29.48,0,0,0-.21-3.53A30,30,0,0,0,142.85,318l-126-.44V438.47H384.13C395.82,423.06,436.13,366.09,431.7,285Z"></path><path fill="#56bc8d" d="M112.85 318a30 30 0 0 1 29.79 26.47 29.48 29.48 0 0 1 .21 3.53v34a27.57 27.57 0 0 0 27.57 27.57h2.43V348a29.48 29.48 0 0 0-.21-3.53A30 30 0 0 0 142.85 318l-126-.44v.1zM431.7 285q-.4-7.4-1.29-14.47c-7.1-58.34-36.09-100.59-48.06-116.27l-28.72 1.7c12.64 16.87 39.92 58.21 46.78 114.57q.88 7.08 1.29 14.47c4.43 81.13-35.88 138.1-47.57 153.51h30C395.82 423.06 436.13 366.09 431.7 285z"></path><path fill="#52bbe9" d="M430.41,270.49H338.14V156.83l44.21-2.61C394.32,169.9,423.31,212.15,430.41,270.49Z"></path><path fill="#1cabe1" d="M382.35,154.22l-28.72,1.7c12.64,16.87,39.92,58.21,46.78,114.57h30C423.31,212.15,394.32,169.9,382.35,154.22Z"></path><path fill="#fee27d" d="M16.87,318,20.18,193a80,80,0,0,1,80-80H414.6a43.89,43.89,0,0,1-43.89,43.88H150.28a40,40,0,0,0-40,40V318Z"></path><path fill="#fddd5a" d="M80.28 196.83V318h30V196.83a40 40 0 0 1 40-40h-30A40 40 0 0 0 80.28 196.83zM384.6 113h0a43.89 43.89 0 0 1-43.89 43.88h30A43.89 43.89 0 0 0 414.6 113h-30z"></path><circle cx="73.74" cy="450.95" r="53.55" fill="#8b8893"></circle><path fill="#787681" d="M73.74,397.39a54,54,0,0,0-10,.95,53.55,53.55,0,0,1,0,105.21,53.55,53.55,0,1,0,10-106.16Z"></path><circle cx="73.74" cy="450.95" r="20.63" fill="#fff"></circle><path fill="#56bc8d" d="M70,376h8.12a62.48,62.48,0,0,1,62.48,62.48v0a0,0,0,0,1,0,0H7.5a0,0,0,0,1,0,0v0A62.48,62.48,0,0,1,70,376Z"></path><path fill="#fee27d" d="M386.5 307h-19a7.5 7.5 0 0 1 0-15h19a7.5 7.5 0 0 1 0 15zM172.85 348v11.47h-156v-15H172.64A29.48 29.48 0 0 1 172.85 348z"></path><path fill="#fddd5a" d="M172.64,344.49h-30a29.48,29.48,0,0,1,.21,3.53v11.47h30V348A29.48,29.48,0,0,0,172.64,344.49Z"></path><path fill="#18171c" d="M511.78,436.68a114,114,0,0,0-31.67-55,115.9,115.9,0,0,0-8.89-7.72h.28a7.5,7.5,0,0,0,7.5-7.5v-43a7.5,7.5,0,0,0-7.5-7.5H450a28.86,28.86,0,0,0-11.4,2.34,233.6,233.6,0,0,0,.59-33.79c-3.18-58.3-27.56-102.2-44.58-126.13A51.43,51.43,0,0,0,422.1,113a7.5,7.5,0,0,0-7.5-7.5H100.18A87.6,87.6,0,0,0,12.68,193V398.36A69.57,69.57,0,0,0,0,438.47,7.5,7.5,0,0,0,7.5,446h5.41c-.14,1.66-.23,3.32-.23,5a61.06,61.06,0,0,0,122.11,0c0-1.66-.09-3.33-.23-5h6a7.34,7.34,0,0,0,1.34-.13,7.53,7.53,0,0,0,1.35.13H380.43c-.14,1.65-.23,3.32-.23,5a61.06,61.06,0,0,0,122.11,0c0-1.66-.09-3.32-.23-5h2.42a7.5,7.5,0,0,0,7.28-9.29ZM450,331h14v28H450a14,14,0,0,1,0-28Zm-28.18-68H345.64V164.33h25.07a51,51,0,0,0,9.06-.82A229.51,229.51,0,0,1,421.82,263ZM27.68,193a72.58,72.58,0,0,1,72.5-72.5H406.32a36.46,36.46,0,0,1-35.61,28.88H150.28a47.56,47.56,0,0,0-47.5,47.5V310.52H27.68Zm197,143.88v-9.68H289.5a4.84,4.84,0,0,1,0,9.68Zm54.38,15v50.22H224.64V351.83Zm15-.54a19.83,19.83,0,0,0-4.52-39.14H224.64V164.33h106V379.55a22.53,22.53,0,0,1-22.5,22.5H294ZM142.85,310.52H117.78V196.83a32.54,32.54,0,0,1,32.5-32.5h59.36V402.05H180.35V348A37.54,37.54,0,0,0,142.85,310.52Zm-115.17,15H142.85a22.53,22.53,0,0,1,22.22,19H27.68ZM73.74,497A46,46,0,0,1,28,446H46.05a28.14,28.14,0,1,0,55.37,0h18.09a46,46,0,0,1-45.77,51ZM60.6,451a13.08,13.08,0,0,1,1-5H85.89a13.13,13.13,0,1,1-25.29,5ZM15.51,431A55.07,55.07,0,0,1,70,383.48h8.13A55.07,55.07,0,0,1,132.58,431Zm122.33-28.92a70,70,0,0,0-59.73-33.57H70a69.63,69.63,0,0,0-42.3,14.28V359.49H165.35v42.56ZM380.36,431H147.68a69,69,0,0,0-3-13.92H308.14a37.54,37.54,0,0,0,37.5-37.5V278h78c.22,2.43.41,4.89.54,7.38C428.07,356,396.46,408.88,380.36,431Zm60.9,66a46,46,0,0,1-45.78-51h18.09a28.14,28.14,0,1,0,55.37,0H487a46,46,0,0,1-45.77,51ZM428.12,451a13.08,13.08,0,0,1,1-5h24.31a13.13,13.13,0,1,1-25.29,5Zm-29.49-20a251.71,251.71,0,0,0,22.25-41.72q4.26-10.2,7.54-20.58a100,100,0,0,1,66,62.3ZM386.5,292h-19a7.5,7.5,0,0,0,0,15h19a7.5,7.5,0,0,0,0-15Z"></path></svg>