<svg xmlns="http://www.w3.org/2000/svg" xmlns:xlink="http://www.w3.org/1999/xlink" viewBox="0 0 128 128" id="carrot"><defs><linearGradient id="a" x1="87.623" x2="92.552" y1="27.185" y2="30.185" gradientUnits="userSpaceOnUse"><stop offset=".01" stop-color="#5baf6b"></stop><stop offset="1" stop-color="#3d7546"></stop></linearGradient><linearGradient id="b" x1="84.553" x2="84.553" y1="31.375" y2="41.145" gradientUnits="userSpaceOnUse"><stop offset="0" stop-color="#3d7546" stop-opacity="0"></stop><stop offset=".97" stop-color="#3d7546"></stop></linearGradient><linearGradient id="f" x1="75.292" x2="80.863" y1="27.278" y2="27.6" xlink:href="#a"></linearGradient><linearGradient id="g" x1="77.156" x2="77.156" y1="28.916" y2="38.842" xlink:href="#b"></linearGradient><linearGradient id="c" x1="80.273" x2="86.702" y1="25.126" y2="26.572" gradientUnits="userSpaceOnUse"><stop offset="0" stop-color="#84ce90"></stop><stop offset="1" stop-color="#51af63"></stop></linearGradient><linearGradient id="d" x1="81.199" x2="81.199" y1="27.831" y2="43.788" gradientUnits="userSpaceOnUse"><stop offset="0" stop-color="#51af63" stop-opacity="0"></stop><stop offset=".987" stop-color="#51af63"></stop></linearGradient><linearGradient id="h" x1="95.93" x2="99.68" y1="35.326" y2="38.969" xlink:href="#a"></linearGradient><linearGradient id="i" x1="91.187" x2="91.187" y1="37.595" y2="45.592" xlink:href="#b"></linearGradient><linearGradient id="j" x1="92.929" x2="97.59" y1="29.717" y2="33.413" xlink:href="#c"></linearGradient><linearGradient id="k" x1="88.877" x2="88.877" y1="32.848" y2="46.819" xlink:href="#d"></linearGradient><linearGradient id="l" x1="40.332" x2="70.868" y1="74.198" y2="102.162" gradientUnits="userSpaceOnUse"><stop offset="0" stop-color="#e56730"></stop><stop offset="1" stop-color="#c9431f"></stop></linearGradient><linearGradient id="m" x1="39.55" x2="39.55" y1="79.531" y2="121.318" gradientUnits="userSpaceOnUse"><stop offset="0" stop-color="#c9431f" stop-opacity="0"></stop><stop offset="1" stop-color="#c9431f"></stop></linearGradient><linearGradient id="e" x1="77.56" x2="89.775" y1="69.302" y2="77.445" gradientUnits="userSpaceOnUse"><stop offset="0" stop-color="#c9431f"></stop><stop offset="1" stop-color="#ad3612"></stop></linearGradient><linearGradient id="n" x1="64.812" x2="50.883" y1="70.604" y2="62.676" xlink:href="#e"></linearGradient><linearGradient id="o" x1="42.943" x2="34.8" y1="96.062" y2="87.49" xlink:href="#e"></linearGradient><linearGradient id="p" x1="57.582" x2="65.51" y1="91.078" y2="101.578" xlink:href="#e"></linearGradient><linearGradient id="q" x1="31.286" x2="36.215" y1="107.612" y2="116.184" xlink:href="#e"></linearGradient><linearGradient id="r" x1="8.207" x2="113.198" y1="63.495" y2="63.495" gradientUnits="userSpaceOnUse"><stop offset="0" stop-color="#2d2d2d"></stop><stop offset=".987" stop-color="#141414"></stop></linearGradient></defs><g data-name="Layer 2"><path fill="url(#a)" d="M78.0174,44.5051,96.82,12.2279a2.1881,2.1881,0,0,1,2.9516-.8123h0a2.1882,2.1882,0,0,1,.875,2.9337L83.6536,46.6028Z"></path><polygon fill="url(#b)" points="83.855 46.22 90.66 33.305 85.82 31.112 78.447 43.768 83.855 46.22"></polygon><path fill="url(#f)" d="M73.3072,42.6939c3.9068-9.8217,4.5028-18.7828,3.8954-29.98a2.2591,2.2591,0,0,1,1.4245-2.2333l.04-.0159A2.2554,2.2554,0,0,1,81.7342,12.39c.9252,12.02-.6405,21.6669-5.2375,32.1724Z"></path><path fill="url(#g)" d="M81.0041,30.0565,76.8916,28.649a55.5942,55.5942,0,0,1-3.5844,14.0448l.532.3118,2.896.991A63.8921,63.8921,0,0,0,81.0041,30.0565Z"></path><path fill="url(#c)" d="M76.2383,42.7751c4.365-10.7609,7.135-21.6883,9.7383-33.8866a2.3959,2.3959,0,0,1,4.7177.8243A133.4451,133.4451,0,0,1,80.3662,45.1607Z"></path><path fill="url(#d)" d="M81.3864,27.679a149.8078,149.8078,0,0,1-5.1481,15.096l4.1279,2.3856A123.8527,123.8527,0,0,0,86.16,29.7565Z"></path><path fill="url(#h)" d="M87.86,49.7451c6.216-8.4187,13.3192-13.2821,23.1635-18.7006a2.2591,2.2591,0,0,0,1.1418-2.39l-.0079-.0428a2.2555,2.2555,0,0,0-3.2561-1.5842C98.5162,32.4411,91.2745,38.6657,84.925,47.6884Z"></path><path fill="url(#i)" d="M93.861,37.38a63.9324,63.9324,0,0,0-8.936,10.3083l2.935,2.0567a52.3506,52.3506,0,0,1,9.5887-9.9673Z"></path><path fill="url(#j)" d="M85.3144,48.0209c6.9221-9.4226,14.8978-17.5291,23.91-26.2444a2.396,2.396,0,0,0-3.1987-3.5644A133.8432,133.8432,0,0,0,81.8775,45.0863Z"></path><path fill="url(#k)" d="M91.3946,32.7155a124.2567,124.2567,0,0,0-9.517,12.3708l3.4367,2.9346A149.4756,149.4756,0,0,1,95.8775,35.3037Z"></path><path fill="url(#l)" d="M20.7484,119.6472c-14.5367,2.3918-13.4245-7.678-7.1253-12.7174,24.94-19.9517,32.4685-30.0841,39.9035-54.8673C56.5193,42.0867,62.5049,38.0963,71.722,39.17c6.2514.7281,12.2264,4.1,17.0146,8.1848,6.6886,5.7055,10.0363,14.99,4.6934,24.66C77.8258,100.2543,49.5362,114.9105,20.7484,119.6472Z"></path><path fill="url(#m)" d="M45.9979,71.7559C39.6835,84.14,30.767,93.2147,13.6231,106.93c-6.2992,5.04-7.4114,15.1093,7.1253,12.7175,17.4761-2.8755,34.763-9.4153,49.1453-20.4219Z"></path><path fill="url(#e)" d="M79.34,68.5774c4.9645,4.5912,7.7832,7.9051,8.1818,12.6836q2.4656-3.3747,4.6538-7.0651C89.1234,71.05,85.41,69.4024,79.34,68.5774Z"></path><path fill="url(#n)" d="M51.603,58.1145c-.9865,2.9231-2,5.6381-3.078,8.19A43.1246,43.1246,0,0,1,64.89,73.7165C62.281,66.7172,56.84,61.8251,51.603,58.1145Z"></path><path fill="url(#o)" d="M42.7973,97.9652c-.5709-4.9834-3.06-9.16-5.8285-12.623-1.27,1.5128-2.6307,3.0238-4.0967,4.5506A32.9144,32.9144,0,0,1,42.7973,97.9652Z"></path><path fill="url(#p)" d="M62.697,104.2217q3.2481-2.04,6.3423-4.3394A32.5279,32.5279,0,0,0,57.3065,92.176C60.6434,96.4872,62.2006,100.3018,62.697,104.2217Z"></path><path fill="url(#q)" d="M31.9307,107.484a30.2773,30.2773,0,0,1,1.575,9.3773q2.66-.7279,5.2888-1.5795C37.0334,112.58,35.526,109.6129,31.9307,107.484Z"></path></g><path fill="url(#r)" d="M16.75,121.0059a25.7214,25.7214,0,0,0,4.1606-.3721c30.9517-5.0923,58.3507-20.9074,73.3951-48.1362C99.897,62.3783,96.295,53.3358,90.678,47.7839c5.6409-6.7539,12.1733-11.1,20.8274-15.8635a3.2718,3.2718,0,0,0-3.0664-5.78c-1.8463.9625-3.5846,1.954-5.2416,2.9752,2.1329-2.1472,4.3626-4.3389,6.722-6.6207a3.32,3.32,0,0,0,.1446-4.7466,3.2828,3.2828,0,0,0-4.689-.2959Q99.8211,22.21,94.9265,27.3519l6.6052-12.5365a3.1882,3.1882,0,0,0-5.5756-3.0908l-7.132,12.2427c1.1672-4.5807,2.1309-9.2844,2.859-14.105a3.2848,3.2848,0,0,0-2.7349-3.82,3.32,3.32,0,0,0-3.95,2.6382c-.6313,2.9587-1.3067,5.9875-2.04,9.0553-.0227-1.7591-.0835-3.55-.2276-5.4225a3.2719,3.2719,0,0,0-6.5273.4551c.5889,10.8629-.1271,18.369-2.4589,25.717-.6278-.1238-1.2616-.2331-1.9073-.3083-9.877-1.15-16.1782,3.2973-19.27,13.5986-7.2906,24.3042-14.6871,34.4673-39.57,54.3735-3.9331,3.1465-5.7407,7.7818-4.2978,11.0215C9.394,118.728,11.3354,121.0059,16.75,121.0059Zm16.9023-11a22.0092,22.0092,0,0,1,3.5708,4.6728l.0358.0563q-1.3747.4274-2.771.8243A28.072,28.072,0,0,0,33.6523,110.0059ZM63.44,102.5744a23.7485,23.7485,0,0,0-3.2111-7.9528,29.8978,29.8978,0,0,1,7.2944,5.1292Q65.5261,101.2084,63.44,102.5744ZM88.0822,78.7428c-.8185-3.0363-2.68-5.6058-5.6735-8.6095a17.1717,17.1717,0,0,1,8.5,4.2322Q89.5589,76.6014,88.0822,78.7428Zm7.5184-41.5875a68.4835,68.4835,0,0,1,13.7632-9.2412,1.2719,1.2719,0,0,1,1.1772,2.2544c-8.831,4.861-15.5169,9.3136-21.3432,16.2683q-.4214-.3555-.8766-.7205c2.25-2.8878,4.6186-5.6883,7.1462-8.4842A.9417.9417,0,0,0,95.6006,37.1553Zm11.0752-18.1836a1.2985,1.2985,0,0,1,1.9092.1225,1.3319,1.3319,0,0,1-.0562,1.9634C99.9112,29.392,92.8911,36.5952,86.7347,44.499c-.69-.5049-1.4231-1.008-2.1936-1.5A134.05,134.05,0,0,1,106.6758,18.9717Zm-19.8853,12.46L97.6846,12.7314a1.1879,1.1879,0,0,1,2.0776,1.1514l-10.1211,19.21a.9409.9409,0,0,0-.0517.1764q-3.5749,4.2115-6.7062,8.6092,2.082-4.9932,3.7623-10.2826A.9549.9549,0,0,0,86.7905,31.4321Zm.1641-22.3349A1.334,1.334,0,0,1,88.59,8.01a1.2994,1.2994,0,0,1,1.1153,1.5537,134.0511,134.0511,0,0,1-8.6362,31.4651c-.8464-.4206-1.7216-.8153-2.6281-1.1692A212.9174,212.9174,0,0,0,86.9546,9.0972ZM78.2012,12.66a1.273,1.273,0,0,1,.8305-1.2637,1.255,1.255,0,0,1,1.7056,1.0708,69.9862,69.9862,0,0,1-.3037,14.84c-.0038.028.0067.0534.0053.0811-1.1243,3.9143-2.4022,7.8641-3.8864,11.8132-.2835-.0888-.5669-.1773-.855-.2575C78.0708,31.3973,78.8005,23.7109,78.2012,12.66Zm-26.09,47.06a35.6922,35.6922,0,0,1,10.381,11.1631A44.7836,44.7836,0,0,0,49.9007,65.6C50.6636,63.7307,51.3961,61.7762,52.1107,59.72ZM36.928,86.9221a26.0055,26.0055,0,0,1,4.1262,7.68A33.9712,33.9712,0,0,0,34.47,89.6526Q35.7539,88.2821,36.928,86.9221ZM14.2476,107.71A205.5924,205.5924,0,0,0,33.0467,91.1425a31.6568,31.6568,0,0,1,8.9787,7.4581,1,1,0,0,0,1.7656-.749c-.4781-4.17-2.3064-8.2632-5.5473-12.4876A72.548,72.548,0,0,0,49.1143,67.47a42.3035,42.3035,0,0,1,15.18,7.0489,1,1,0,0,0,1.5337-1.1523c-2.7787-7.4525-8.6307-12.4441-13.0422-15.6338.5716-1.7215,1.136-3.5063,1.699-5.3828,2.5107-8.37,7.1343-12.35,14.4448-12.35,7.1608,0,13.7749,3.5231,19.1587,8.1147,5.7187,4.8785,9.895,13.5913,4.4668,23.4156-.1992.36-.4093.7131-.6133,1.07-3.0614-2.7522-6.7814-4.2415-12.4668-5.014a1,1,0,0,0-.814,1.7251c4.795,4.4345,7.3409,7.51,7.8138,11.68A87.6,87.6,0,0,1,69.131,98.5468,34.49,34.49,0,0,0,57.6875,91.251a1,1,0,0,0-1.1719,1.5366,23.67,23.67,0,0,1,5.0925,10.9492,104.7582,104.7582,0,0,1-22.3819,10.3663l-.3112-.49c-1.5586-2.4741-3.1709-5.0327-6.4746-6.9893a1,1,0,0,0-1.4682,1.1451,30.8538,30.8538,0,0,1,1.537,8.3419q-5.7866,1.5372-11.9228,2.55h-.0005c-5.4248.893-8.9995.0756-10.0586-2.3033C9.4663,113.9736,11.0654,110.2563,14.2476,107.71Z" data-name="Layer 3"></path></svg>