<svg xmlns="http://www.w3.org/2000/svg" width="64" height="64" enable-background="new 0 0 64 64" viewBox="0 0 64 64" id="identity-card"><path fill="#3AADA1" d="M52.505,7.135v54.871c0,1.101-0.893,1.993-1.994,1.993H13.488c-1.101,0-1.994-0.893-1.994-1.993V7.135
		c0-1.101,0.893-1.994,1.994-1.994h37.024C51.613,5.142,52.505,6.034,52.505,7.135z"></path><rect width="19.781" height="1.895" x="22.109" y="46.706" fill="#E5E5E5"></rect><rect width="19.781" height="1.895" x="22.109" y="51.211" fill="#E5E5E5"></rect><rect width="29.981" height="1.895" x="17.009" y="55.717" fill="#E5E5E5"></rect><rect width="19.126" height="1.937" x="22.437" y="7.835" fill="#455C6C"></rect><polygon fill="#455C6C" points="36.897 8.364 27.477 8.364 25.629 0 38.746 0"></polygon><rect width="23.16" height="25.626" x="20.42" y="14.495" fill="#FFF"></rect><path fill="#455C6C" d="M39.816,40.121H24.184v-3.625c0-4.317,3.499-7.816,7.816-7.816l0,0c4.317,0,7.816,3.499,7.816,7.816V40.121
		z"></path><circle cx="32" cy="22.79" r="4.305" fill="#455C6C"></circle></svg>